<svg xmlns="http://www.w3.org/2000/svg" xmlns:xlink="http://www.w3.org/1999/xlink" width="100" zoomAndPan="magnify" viewBox="0 0 75 74.999997" height="100" preserveAspectRatio="xMidYMid meet" version="1.0"><defs><clipPath id="de3c6f67ab"><path d="M 22.085938 43.460938 L 51.488281 43.460938 L 51.488281 75 L 22.085938 75 Z M 22.085938 43.460938 " clip-rule="nonzero"/></clipPath><clipPath id="3d0bd95460"><path d="M 46.792969 25.8125 L 67.25 25.8125 L 67.25 48 L 46.792969 48 Z M 46.792969 25.8125 " clip-rule="nonzero"/></clipPath></defs><path fill="#3b82f6" d="M 12.222656 21.136719 C 15.292969 20.324219 18.796875 18.988281 20.796875 16.875 C 22.746094 14.820312 23.96875 11.179688 24.714844 7.925781 C 25.496094 11.269531 26.726562 14.992188 28.554688 16.882812 C 30.488281 18.878906 34.238281 20.242188 37.445312 21.097656 C 34.289062 21.902344 30.597656 23.261719 28.542969 25.464844 C 26.617188 27.53125 25.398438 31.15625 24.648438 34.402344 C 23.886719 31.183594 22.675781 27.578125 20.824219 25.488281 C 18.875 23.289062 15.332031 21.941406 12.222656 21.136719 Z M 24.671875 42.324219 C 24.675781 42.324219 24.675781 42.324219 24.679688 42.324219 C 25.257812 42.320312 25.738281 41.878906 25.785156 41.300781 C 25.792969 41.195312 26.730469 30.683594 30.175781 26.988281 C 33.59375 23.320312 43.242188 22.289062 43.339844 22.277344 C 43.902344 22.222656 44.332031 21.753906 44.34375 21.1875 C 44.351562 20.625 43.941406 20.140625 43.382812 20.0625 C 40.597656 19.667969 32.792969 18.050781 30.160156 15.332031 C 27.53125 12.613281 26.109375 4.074219 25.785156 1.011719 C 25.722656 0.4375 25.234375 0.00390625 24.660156 0.0117188 C 24.082031 0.0195312 23.605469 0.464844 23.558594 1.039062 C 23.320312 3.984375 22.0625 12.292969 19.175781 15.339844 C 15.71875 18.988281 6.097656 20.046875 6.003906 20.058594 C 5.433594 20.117188 5 20.601562 5.003906 21.175781 C 5.007812 21.75 5.445312 22.226562 6.015625 22.28125 C 6.113281 22.289062 15.84375 23.238281 19.152344 26.96875 C 22.511719 30.761719 23.550781 41.207031 23.5625 41.3125 C 23.617188 41.886719 24.097656 42.324219 24.671875 42.324219 " fill-opacity="1" fill-rule="nonzero"/><g clip-path="url(#de3c6f67ab)"><path fill="#3b82f6" d="M 39.460938 62.230469 C 38.199219 63.585938 37.34375 65.828125 36.773438 67.988281 C 36.203125 65.847656 35.359375 63.621094 34.144531 62.25 C 32.847656 60.789062 30.625 59.828125 28.519531 59.210938 C 30.59375 58.589844 32.792969 57.648438 34.121094 56.246094 C 35.394531 54.902344 36.25 52.667969 36.820312 50.511719 C 37.402344 52.722656 38.257812 54.996094 39.476562 56.253906 C 40.773438 57.59375 43.101562 58.546875 45.269531 59.1875 C 43.132812 59.804688 40.824219 60.769531 39.460938 62.230469 Z M 50.558594 58.191406 C 48.535156 57.902344 42.875 56.730469 40.988281 54.785156 C 39.105469 52.84375 38.078125 46.640625 37.84375 44.414062 C 37.785156 43.878906 37.332031 43.472656 36.792969 43.472656 C 36.789062 43.472656 36.785156 43.472656 36.78125 43.472656 C 36.238281 43.476562 35.785156 43.898438 35.742188 44.441406 C 35.566406 46.578125 34.660156 52.609375 32.589844 54.796875 C 30.53125 56.964844 25.015625 57.980469 23.066406 58.1875 C 22.527344 58.242188 22.117188 58.699219 22.121094 59.242188 C 22.125 59.785156 22.539062 60.234375 23.078125 60.285156 C 25.050781 60.46875 30.597656 61.429688 32.566406 63.648438 C 34.570312 65.910156 35.539062 71.917969 35.742188 74.046875 C 35.796875 74.585938 36.25 75 36.792969 75 C 36.796875 75 36.796875 75 36.800781 75 C 37.34375 74.996094 37.796875 74.578125 37.84375 74.035156 C 38.027344 71.898438 38.953125 65.871094 41.003906 63.667969 C 43.035156 61.488281 48.5625 60.488281 50.519531 60.285156 C 51.050781 60.230469 51.457031 59.789062 51.464844 59.253906 C 51.476562 58.722656 51.085938 58.265625 50.558594 58.191406 " fill-opacity="1" fill-rule="nonzero"/></g><g clip-path="url(#3d0bd95460)"><path fill="#3b82f6" d="M 58.855469 38.832031 C 58.089844 39.652344 57.539062 40.902344 57.144531 42.183594 C 56.753906 40.917969 56.214844 39.679688 55.480469 38.851562 C 54.683594 37.949219 53.417969 37.316406 52.140625 36.882812 C 53.394531 36.453125 54.644531 35.839844 55.460938 34.976562 C 56.234375 34.160156 56.789062 32.910156 57.183594 31.628906 C 57.582031 32.949219 58.128906 34.222656 58.867188 34.984375 C 59.664062 35.804688 60.996094 36.417969 62.324219 36.863281 C 61.015625 37.296875 59.699219 37.929688 58.855469 38.832031 Z M 66.695312 35.980469 C 65.316406 35.785156 61.46875 34.992188 60.203125 33.6875 C 59.085938 32.535156 58.308594 28.753906 58.085938 26.644531 C 58.035156 26.171875 57.636719 25.8125 57.160156 25.8125 C 57.15625 25.8125 57.152344 25.8125 57.148438 25.8125 C 56.667969 25.820312 56.273438 26.1875 56.234375 26.667969 C 56.113281 28.125 55.5 32.230469 54.109375 33.695312 C 52.730469 35.148438 48.984375 35.835938 47.65625 35.976562 C 47.179688 36.027344 46.820312 36.429688 46.824219 36.90625 C 46.828125 37.386719 47.191406 37.785156 47.667969 37.828125 C 49.007812 37.953125 52.773438 38.601562 54.089844 40.085938 C 55.4375 41.605469 56.09375 45.699219 56.234375 47.148438 C 56.28125 47.625 56.679688 47.992188 57.160156 47.992188 C 57.160156 47.992188 57.164062 47.992188 57.164062 47.992188 C 57.644531 47.988281 58.046875 47.617188 58.085938 47.140625 C 58.210938 45.683594 58.835938 41.582031 60.214844 40.101562 C 61.578125 38.640625 65.328125 37.964844 66.660156 37.828125 C 67.128906 37.78125 67.488281 37.390625 67.496094 36.917969 C 67.503906 36.449219 67.160156 36.046875 66.695312 35.980469 " fill-opacity="1" fill-rule="nonzero"/></g><path fill="#3b82f6" d="M 24.011719 16.148438 C 23.433594 16.085938 22.914062 16.507812 22.855469 17.085938 C 22.667969 18.871094 20.957031 19.183594 20.769531 19.210938 C 20.195312 19.289062 19.789062 19.820312 19.867188 20.398438 C 19.941406 20.925781 20.390625 21.308594 20.910156 21.308594 C 20.957031 21.308594 21.007812 21.308594 21.054688 21.300781 C 22.277344 21.136719 24.664062 20.085938 24.953125 17.304688 C 25.011719 16.726562 24.59375 16.207031 24.011719 16.148438 " fill-opacity="1" fill-rule="nonzero"/><path fill="#3b82f6" d="M 36.519531 56.390625 C 35.96875 56.390625 35.527344 56.835938 35.527344 57.382812 C 35.527344 57.917969 34.800781 58.0625 34.730469 58.074219 C 34.1875 58.160156 33.816406 58.667969 33.902344 59.210938 C 33.980469 59.699219 34.402344 60.046875 34.882812 60.046875 C 34.933594 60.046875 34.984375 60.042969 35.039062 60.035156 C 35.894531 59.902344 37.511719 59.171875 37.511719 57.382812 C 37.511719 56.835938 37.066406 56.390625 36.519531 56.390625 " fill-opacity="1" fill-rule="nonzero"/></svg>