<svg xmlns="http://www.w3.org/2000/svg" xmlns:xlink="http://www.w3.org/1999/xlink" width="100" zoomAndPan="magnify" viewBox="0 0 75 74.999997" height="100" preserveAspectRatio="xMidYMid meet" version="1.0"><defs><clipPath id="a803663d2c"><path d="M 18 3.421875 L 35 3.421875 L 35 22 L 18 22 Z M 18 3.421875 " clip-rule="nonzero"/></clipPath><clipPath id="ca43cbb0c1"><path d="M 21 20 L 75 20 L 75 71.671875 L 21 71.671875 Z M 21 20 " clip-rule="nonzero"/></clipPath></defs><path fill="#3b82f6" d="M 17.691406 38.78125 C 16.628906 38.496094 15.023438 38.066406 13.503906 36.546875 C 11.921875 34.964844 11.46875 32.796875 11.199219 31.507812 C 11 30.554688 10.789062 29.570312 9.738281 29.570312 C 8.683594 29.570312 8.476562 30.558594 8.277344 31.515625 C 8.003906 32.804688 7.550781 34.964844 5.96875 36.546875 C 4.453125 38.066406 2.847656 38.496094 1.785156 38.78125 C 0.992188 38.992188 0 39.253906 0 40.3125 C 0 41.367188 0.992188 41.628906 1.789062 41.84375 C 2.847656 42.125 4.453125 42.554688 5.972656 44.078125 C 7.550781 45.652344 8.007812 47.820312 8.28125 49.109375 C 8.480469 50.066406 8.6875 51.054688 9.742188 51.054688 C 10.792969 51.054688 11 50.066406 11.199219 49.117188 C 11.472656 47.820312 11.921875 45.660156 13.503906 44.078125 C 15.023438 42.554688 16.628906 42.125 17.695312 41.84375 C 18.488281 41.628906 19.480469 41.367188 19.480469 40.3125 C 19.480469 39.253906 18.488281 38.992188 17.691406 38.78125 Z M 11.9375 42.511719 C 10.839844 43.605469 10.171875 44.875 9.738281 46.042969 C 9.308594 44.875 8.640625 43.605469 7.542969 42.511719 C 6.425781 41.390625 5.253906 40.730469 4.242188 40.3125 C 5.253906 39.890625 6.425781 39.230469 7.542969 38.113281 C 8.640625 37.019531 9.304688 35.75 9.738281 34.578125 C 10.171875 35.75 10.839844 37.019531 11.9375 38.113281 C 13.054688 39.230469 14.226562 39.890625 15.238281 40.3125 C 14.226562 40.730469 13.054688 41.390625 11.9375 42.511719 Z M 11.9375 42.511719 " fill-opacity="1" fill-rule="nonzero"/><g clip-path="url(#a803663d2c)"><path fill="#3b82f6" d="M 20.019531 13.851562 C 20.835938 14.070312 22.078125 14.398438 23.242188 15.566406 C 24.445312 16.765625 24.800781 18.445312 25.007812 19.445312 C 25.160156 20.171875 25.371094 21.167969 26.390625 21.167969 C 27.410156 21.167969 27.621094 20.175781 27.769531 19.449219 C 27.980469 18.445312 28.332031 16.769531 29.535156 15.566406 C 30.703125 14.398438 31.941406 14.070312 32.761719 13.851562 C 33.390625 13.683594 34.347656 13.425781 34.347656 12.414062 C 34.347656 11.402344 33.394531 11.144531 32.761719 10.976562 C 31.945312 10.757812 30.707031 10.429688 29.539062 9.261719 C 28.335938 8.058594 27.984375 6.378906 27.773438 5.378906 C 27.621094 4.652344 27.414062 3.660156 26.390625 3.660156 C 25.371094 3.660156 25.160156 4.65625 25.011719 5.382812 C 24.800781 6.382812 24.449219 8.058594 23.246094 9.261719 C 22.078125 10.429688 20.835938 10.757812 20.019531 10.976562 C 19.386719 11.144531 18.433594 11.402344 18.433594 12.414062 C 18.433594 13.425781 19.386719 13.683594 20.019531 13.851562 Z M 24.8125 10.832031 C 25.542969 10.101562 26.042969 9.273438 26.390625 8.476562 C 26.738281 9.273438 27.238281 10.101562 27.972656 10.832031 C 28.71875 11.578125 29.488281 12.074219 30.195312 12.414062 C 29.488281 12.753906 28.71875 13.25 27.972656 13.996094 C 27.238281 14.726562 26.738281 15.554688 26.390625 16.351562 C 26.042969 15.554688 25.542969 14.726562 24.8125 13.996094 C 24.066406 13.25 23.292969 12.753906 22.585938 12.414062 C 23.292969 12.074219 24.0625 11.578125 24.8125 10.832031 Z M 24.8125 10.832031 " fill-opacity="1" fill-rule="nonzero"/></g><g clip-path="url(#ca43cbb0c1)"><path fill="#3b82f6" d="M 73.738281 36.078125 C 72.433594 32.3125 69.78125 29.769531 66.648438 29.277344 C 62.394531 28.609375 60.632812 26.417969 58.921875 23.84375 C 55.949219 19.367188 48.074219 19.679688 44.777344 21.335938 L 43.730469 21.875 C 41.445312 23.078125 39.078125 24.308594 35.777344 23.808594 C 29.613281 22.867188 25.347656 23.75 23.09375 26.429688 C 19.664062 30.527344 21.976562 37.324219 23.089844 40.585938 L 23.191406 40.890625 C 24.582031 44.992188 23.984375 46.75 22.992188 49.667969 C 22.648438 50.675781 22.269531 51.792969 21.917969 53.136719 C 20.957031 56.839844 21.328125 59.832031 23.027344 62.019531 C 25.03125 64.621094 28.75 65.933594 34.078125 65.933594 L 39.71875 65.933594 C 39.90625 67.277344 39.804688 68.246094 39.800781 68.265625 L 39.714844 68.964844 L 40.304688 69.34375 C 40.429688 69.421875 43.390625 71.292969 47.796875 71.292969 C 52.195312 71.292969 55.1875 69.425781 55.308594 69.34375 L 55.832031 69.015625 L 55.820312 67.804688 C 55.8125 67.199219 55.804688 66.578125 55.816406 65.9375 L 59.355469 65.9375 C 65.875 65.9375 66.535156 62.269531 67.238281 58.382812 C 67.777344 55.398438 68.390625 52.023438 71.445312 48.726562 C 75.03125 44.867188 74.980469 39.664062 73.738281 36.078125 Z M 47.796875 69.074219 C 45.089844 69.074219 43 68.234375 42.054688 67.769531 C 42.09375 66.425781 41.925781 63.566406 40.214844 60.835938 C 39.339844 59.4375 38.433594 58.4375 37.703125 57.632812 C 36.558594 56.382812 36.011719 55.730469 36.023438 54.636719 C 36.054688 52.214844 35.039062 49.023438 33.589844 46.898438 C 33.726562 46.839844 33.933594 46.773438 34.226562 46.773438 C 34.6875 46.773438 35.882812 46.960938 36.933594 48.679688 C 37.917969 50.292969 38.671875 50.945312 39.542969 50.945312 C 39.992188 50.945312 40.402344 50.75 40.707031 50.390625 C 40.992188 50.046875 41.871094 49.003906 40.808594 43.011719 C 40.441406 40.953125 39.585938 36.136719 40.496094 34.90625 C 40.578125 34.796875 40.640625 34.765625 40.816406 34.757812 C 41.398438 34.757812 41.929688 35.863281 42.097656 36.472656 L 42.917969 40.960938 L 45.101562 40.558594 L 44.273438 36.035156 C 44.070312 34.53125 44.320312 32.871094 44.953125 32.769531 C 46 32.769531 46.492188 34.90625 46.566406 35.480469 L 47.601562 40.960938 L 49.78125 40.546875 L 48.769531 35.214844 C 48.75 34.882812 48.820312 34.351562 49.007812 34.148438 C 49.035156 34.113281 49.101562 34.046875 49.347656 34.046875 C 50.585938 34.066406 51.066406 36.707031 51.15625 38.269531 L 51.625 41.992188 L 53.828125 41.710938 L 53.375 38.160156 C 53.386719 37.613281 53.519531 37.371094 53.648438 37.339844 C 55.46875 37.46875 57.066406 44.539062 57.078125 47.957031 C 57.078125 48.257812 57.089844 48.554688 57.097656 48.871094 C 57.15625 50.984375 57.234375 53.609375 54.925781 59.003906 C 53.554688 62.199219 53.578125 65.269531 53.609375 67.75 C 52.667969 68.210938 50.546875 69.074219 47.796875 69.074219 Z M 69.824219 47.222656 C 66.328125 50.984375 65.625 54.867188 65.058594 57.984375 C 64.371094 61.804688 64.023438 63.71875 59.359375 63.71875 L 55.976562 63.71875 C 56.125 62.46875 56.402344 61.1875 56.960938 59.878906 C 59.457031 54.035156 59.375 51.019531 59.308594 48.8125 L 59.292969 47.953125 C 59.292969 47.828125 58.667969 35.472656 53.609375 35.125 C 53.371094 35.125 53.132812 35.160156 52.894531 35.226562 C 52.257812 33.066406 51.023438 31.859375 49.320312 31.839844 C 48.734375 31.839844 48.207031 31.992188 47.769531 32.300781 C 47.078125 31.1875 46.007812 30.339844 44.375 30.609375 C 43.117188 30.835938 42.503906 31.820312 42.214844 32.925781 C 41.808594 32.6875 41.347656 32.539062 40.816406 32.539062 L 40.472656 32.5625 C 39.757812 32.648438 39.152344 33 38.714844 33.589844 C 37.34375 35.433594 37.890625 39.285156 38.621094 43.402344 C 39.019531 45.632812 39.113281 47.082031 39.097656 47.957031 C 39.019531 47.832031 38.925781 47.695312 38.828125 47.527344 C 37.671875 45.640625 35.996094 44.5625 34.226562 44.5625 C 32.980469 44.5625 31.890625 45.125 31.449219 46 C 31.121094 46.636719 31.1875 47.375 31.617188 47.957031 C 32.890625 49.691406 33.832031 52.550781 33.808594 54.609375 C 33.78125 56.621094 34.839844 57.785156 36.0625 59.128906 C 36.769531 59.902344 37.566406 60.78125 38.332031 62.011719 C 38.6875 62.578125 38.941406 63.152344 39.152344 63.71875 L 34.078125 63.71875 C 29.46875 63.71875 26.339844 62.695312 24.777344 60.664062 C 23.523438 59.046875 23.28125 56.699219 24.0625 53.699219 C 24.394531 52.410156 24.757812 51.351562 25.085938 50.386719 C 26.152344 47.257812 26.921875 44.996094 25.289062 40.183594 L 25.183594 39.875 C 24.199219 36.996094 22.160156 30.996094 24.789062 27.859375 C 26.507812 25.804688 30.097656 25.183594 35.433594 26.003906 C 39.460938 26.621094 42.273438 25.144531 44.753906 23.84375 L 45.765625 23.320312 C 48.019531 22.183594 54.804688 21.65625 57.066406 25.066406 C 58.925781 27.863281 61.164062 30.660156 66.300781 31.464844 C 68.570312 31.824219 70.617188 33.867188 71.632812 36.808594 C 72.671875 39.78125 72.742188 44.082031 69.824219 47.222656 Z M 69.824219 47.222656 " fill-opacity="1" fill-rule="nonzero"/></g></svg>