<svg xmlns="http://www.w3.org/2000/svg" xmlns:xlink="http://www.w3.org/1999/xlink" width="100" zoomAndPan="magnify" viewBox="0 0 75 74.999997" height="100" preserveAspectRatio="xMidYMid meet" version="1.0"><path fill="#3b82f6" d="M 75 28.125 L 70.582031 23.707031 L 61.683594 32.605469 C 57.140625 27.921875 50.789062 25 43.75 25 C 29.945312 25 18.75 36.195312 18.75 50 C 18.75 63.808594 29.945312 75 43.75 75 C 57.558594 75 68.75 63.808594 68.75 50 C 68.75 45.503906 67.546875 41.300781 65.472656 37.652344 Z M 62.5 50 C 62.5 60.355469 54.105469 68.75 43.75 68.75 C 33.394531 68.75 25 60.355469 25 50 C 25 39.644531 33.394531 31.25 43.75 31.25 C 49.0625 31.25 53.851562 33.472656 57.261719 37.023438 L 43.75 50.535156 L 35.667969 42.457031 L 31.25 46.875 L 43.75 59.375 L 60.832031 42.292969 C 61.894531 44.648438 62.5 47.25 62.5 50 Z M 62.5 50 " fill-opacity="1" fill-rule="nonzero"/><path fill="#3b82f6" d="M 59.375 18.75 C 59.375 17.023438 60.773438 15.625 62.5 15.625 L 65.625 15.625 L 65.625 12.5 L 62.5 12.5 C 60.773438 12.5 59.375 11.101562 59.375 9.375 L 59.375 6.25 L 56.25 6.25 L 56.25 9.375 C 56.25 11.101562 54.847656 12.5 53.125 12.5 L 50 12.5 L 50 15.625 C 50 15.625 53.125 15.625 53.125 15.621094 C 54.847656 15.625 56.246094 17.023438 56.25 18.75 L 56.25 21.875 L 59.375 21.875 Z M 59.375 18.75 " fill-opacity="1" fill-rule="nonzero"/><path fill="#3b82f6" d="M 12.5 18.75 C 12.5 15.296875 15.296875 12.5 18.75 12.5 L 21.875 12.5 L 21.875 9.375 L 18.75 9.375 C 15.296875 9.375 12.5 6.578125 12.5 3.125 L 12.5 0 L 9.375 0 C 9.375 0 9.375 3.125 9.375 3.125 C 9.375 6.574219 6.574219 9.375 3.125 9.375 L 0 9.375 L 0 12.5 C 0 12.5 3.125 12.5 3.125 12.5 C 6.574219 12.5 9.375 15.296875 9.375 18.75 L 9.375 21.875 L 12.5 21.875 Z M 12.5 18.75 " fill-opacity="1" fill-rule="nonzero"/><path fill="#3b82f6" d="M 12.5 39.0625 C 12.5 41.652344 10.402344 43.75 7.8125 43.75 C 5.230469 43.75 3.125 41.652344 3.125 39.0625 C 3.125 36.472656 5.230469 34.375 7.8125 34.375 C 10.402344 34.375 12.5 36.472656 12.5 39.0625 Z M 12.5 39.0625 " fill-opacity="1" fill-rule="nonzero"/><path fill="#3b82f6" d="M 43.75 6.25 C 43.75 7.972656 42.347656 9.375 40.625 9.375 C 38.902344 9.375 37.5 7.972656 37.5 6.25 C 37.5 4.527344 38.902344 3.125 40.625 3.125 C 42.347656 3.125 43.75 4.527344 43.75 6.25 Z M 43.75 6.25 " fill-opacity="1" fill-rule="nonzero"/><path fill="#3b82f6" d="M 28.125 21.875 C 28.125 23.597656 26.722656 25 25 25 C 23.277344 25 21.875 23.59375 21.875 21.875 C 21.875 20.15625 23.277344 18.75 25 18.75 C 26.722656 18.75 28.125 20.15625 28.125 21.875 Z M 28.125 21.875 " fill-opacity="1" fill-rule="nonzero"/><path fill="#3b82f6" d="M 12.5 59.375 C 12.5 61.097656 11.097656 62.5 9.375 62.5 C 7.652344 62.5 6.25 61.097656 6.25 59.375 C 6.25 57.65625 7.652344 56.25 9.375 56.25 C 11.097656 56.25 12.5 57.65625 12.5 59.375 Z M 12.5 59.375 " fill-opacity="1" fill-rule="nonzero"/></svg>