<svg xmlns="http://www.w3.org/2000/svg" xmlns:xlink="http://www.w3.org/1999/xlink" width="100" zoomAndPan="magnify" viewBox="0 0 75 74.999997" height="100" preserveAspectRatio="xMidYMid meet" version="1.0"><defs><clipPath id="e11bd9c51f"><path d="M 24 17 L 46 17 L 46 74.671875 L 24 74.671875 Z M 24 17 " clip-rule="nonzero"/></clipPath><clipPath id="50174dfdfe"><path d="M 54 0.421875 L 67 0.421875 L 67 11 L 54 11 Z M 54 0.421875 " clip-rule="nonzero"/></clipPath></defs><path fill="#1e3a8a" d="M 30.765625 27.960938 C 30.8125 28.21875 30.808594 28.480469 30.757812 28.738281 C 30.703125 28.996094 30.601562 29.234375 30.453125 29.453125 C 30.300781 29.671875 30.117188 29.855469 29.894531 30 C 29.675781 30.144531 29.433594 30.242188 29.171875 30.289062 C 28.914062 30.339844 28.65625 30.335938 28.394531 30.28125 C 28.136719 30.226562 27.898438 30.125 27.679688 29.976562 C 27.460938 29.828125 27.28125 29.640625 27.136719 29.421875 C 26.988281 29.199219 26.894531 28.960938 26.84375 28.699219 C 26.796875 28.4375 26.796875 28.179688 26.851562 27.921875 C 26.90625 27.664062 27.007812 27.421875 27.15625 27.207031 C 27.304688 26.988281 27.492188 26.804688 27.710938 26.660156 C 27.933594 26.515625 28.175781 26.417969 28.433594 26.371094 C 28.695312 26.320312 28.953125 26.324219 29.210938 26.378906 C 29.472656 26.429688 29.710938 26.53125 29.929688 26.683594 C 30.148438 26.832031 30.328125 27.015625 30.472656 27.238281 C 30.617188 27.460938 30.714844 27.699219 30.765625 27.960938 Z M 30.765625 27.960938 " fill-opacity="1" fill-rule="nonzero"/><path fill="#1e3a8a" d="M 4.003906 43.878906 C 4.398438 43.949219 4.761719 44.089844 5.097656 44.300781 C 5.4375 44.515625 5.722656 44.785156 5.949219 45.109375 C 6.179688 45.4375 6.339844 45.792969 6.429688 46.183594 C 6.515625 46.574219 6.527344 46.964844 6.457031 47.355469 C 6.390625 47.75 6.25 48.117188 6.035156 48.453125 C 5.824219 48.789062 5.554688 49.074219 5.226562 49.304688 C 4.902344 49.535156 4.542969 49.695312 4.15625 49.78125 C 3.765625 49.871094 3.375 49.878906 2.980469 49.8125 C 2.589844 49.746094 2.222656 49.605469 1.886719 49.390625 C 1.546875 49.175781 1.265625 48.90625 1.035156 48.582031 C 0.804688 48.257812 0.644531 47.898438 0.558594 47.507812 C 0.46875 47.121094 0.457031 46.726562 0.527344 46.335938 C 0.59375 45.941406 0.734375 45.578125 0.949219 45.238281 C 1.160156 44.902344 1.429688 44.617188 1.757812 44.386719 C 2.082031 44.15625 2.441406 44 2.828125 43.910156 C 3.21875 43.824219 3.609375 43.8125 4.003906 43.878906 Z M 4.003906 43.878906 " fill-opacity="1" fill-rule="nonzero"/><g clip-path="url(#e11bd9c51f)"><path fill="#1e3a8a" d="M 41.460938 56.164062 C 41.292969 55.839844 40.960938 55.636719 40.59375 55.636719 L 40.210938 55.636719 L 40.210938 18.191406 C 40.210938 17.652344 39.773438 17.210938 39.230469 17.210938 C 38.691406 17.210938 38.25 17.652344 38.25 18.191406 L 38.25 55.636719 L 38.085938 55.636719 C 37.703125 55.636719 37.355469 55.863281 37.195312 56.210938 C 37.183594 56.230469 36.203125 58.34375 34.214844 60.746094 C 32.394531 62.9375 29.328125 65.84375 25.039062 67.222656 C 24.710938 67.328125 24.460938 67.601562 24.382812 67.9375 C 24.304688 68.273438 24.414062 68.628906 24.664062 68.867188 C 25.269531 69.445312 25.894531 69.988281 26.523438 70.480469 C 26.75 70.65625 27.003906 70.734375 27.347656 70.734375 C 28.023438 70.734375 29.046875 70.445312 31.246094 69.746094 L 31.253906 69.742188 C 31.332031 69.71875 31.410156 69.691406 31.492188 69.667969 C 31.300781 69.859375 31.105469 70.035156 30.929688 70.199219 C 30.203125 70.878906 29.679688 71.367188 29.789062 72.078125 C 29.847656 72.449219 30.085938 72.761719 30.441406 72.933594 C 31.328125 73.355469 32.238281 73.699219 33.144531 73.960938 C 33.605469 74.089844 34.125 73.953125 34.890625 73.492188 C 35.414062 73.179688 36.035156 72.722656 36.632812 72.207031 C 36.835938 72.03125 37.035156 71.851562 37.230469 71.667969 C 37.136719 71.847656 37.046875 72.011719 36.96875 72.160156 C 36.828125 72.417969 36.707031 72.640625 36.621094 72.835938 C 36.535156 73.03125 36.308594 73.546875 36.617188 74.058594 C 36.8125 74.382812 37.164062 74.578125 37.558594 74.578125 L 37.5625 74.578125 C 38.660156 74.574219 39.75 74.453125 40.808594 74.21875 C 41.441406 74.078125 42.054688 73.898438 42.632812 73.683594 C 43.378906 73.40625 43.800781 73.171875 43.847656 73.144531 C 43.992188 73.066406 44.113281 72.949219 44.199219 72.808594 C 45.589844 70.578125 45.53125 67.066406 44.027344 62.371094 C 42.949219 59.003906 41.523438 56.277344 41.460938 56.164062 Z M 41.460938 56.164062 " fill-opacity="1" fill-rule="nonzero"/></g><path fill="#1e3a8a" d="M 26.265625 50.804688 C 27.933594 48.925781 31.261719 48.707031 31.292969 48.707031 C 31.875 48.675781 32.339844 48.210938 32.378906 47.628906 C 32.414062 47.046875 32.007812 46.53125 31.433594 46.425781 C 31.421875 46.425781 30.382812 46.238281 29.199219 45.855469 C 27.273438 45.234375 26.539062 44.628906 26.273438 44.324219 C 25.359375 43.265625 24.621094 40.050781 24.367188 38.269531 C 24.289062 37.695312 23.796875 37.273438 23.21875 37.28125 C 22.640625 37.285156 22.15625 37.71875 22.089844 38.292969 C 21.941406 39.527344 21.308594 43.023438 20.183594 44.324219 C 19.101562 45.578125 16.117188 46.261719 15.0625 46.421875 C 14.496094 46.503906 14.078125 46.992188 14.082031 47.5625 C 14.082031 48.132812 14.503906 48.617188 15.070312 48.695312 C 16.105469 48.84375 19.050781 49.511719 20.191406 50.804688 C 21.367188 52.128906 21.957031 55.585938 22.085938 56.808594 C 22.148438 57.394531 22.644531 57.835938 23.230469 57.835938 C 23.242188 57.835938 23.257812 57.835938 23.269531 57.835938 C 23.871094 57.816406 24.355469 57.332031 24.378906 56.730469 C 24.417969 55.628906 24.835938 52.417969 26.265625 50.804688 Z M 26.265625 50.804688 " fill-opacity="1" fill-rule="nonzero"/><path fill="#1e3a8a" d="M 17.335938 28.164062 C 17.371094 27.582031 16.960938 27.0625 16.386719 26.960938 C 15.390625 26.78125 13.691406 26.257812 13.203125 25.699219 C 12.683594 25.101562 12.210938 23.117188 12.035156 21.902344 C 11.957031 21.332031 11.472656 20.910156 10.898438 20.910156 C 10.894531 20.910156 10.890625 20.910156 10.886719 20.910156 C 10.308594 20.917969 9.824219 21.351562 9.757812 21.925781 C 9.617188 23.09375 9.160156 25.039062 8.589844 25.699219 C 8.054688 26.320312 6.429688 26.804688 5.445312 26.953125 C 4.878906 27.039062 4.464844 27.523438 4.464844 28.09375 C 4.464844 28.664062 4.886719 29.148438 5.453125 29.230469 C 6.351562 29.359375 8 29.816406 8.597656 30.492188 C 9.191406 31.164062 9.632812 33.089844 9.753906 34.242188 C 9.816406 34.828125 10.3125 35.273438 10.898438 35.273438 C 10.910156 35.273438 10.925781 35.273438 10.9375 35.273438 C 11.539062 35.253906 12.023438 34.769531 12.046875 34.167969 C 12.074219 33.476562 12.335938 31.464844 13.195312 30.496094 C 14.019531 29.566406 15.679688 29.273438 16.246094 29.242188 C 16.832031 29.210938 17.296875 28.75 17.335938 28.164062 Z M 17.335938 28.164062 " fill-opacity="1" fill-rule="nonzero"/><path fill="#1e3a8a" d="M 74.445312 15.214844 L 72.367188 12.855469 C 72.207031 12.671875 71.980469 12.558594 71.734375 12.542969 C 71.492188 12.527344 71.253906 12.609375 71.070312 12.773438 L 68.386719 15.132812 C 69.613281 16.261719 70.707031 17.527344 71.648438 18.90625 L 74.363281 16.511719 C 74.746094 16.175781 74.78125 15.59375 74.445312 15.214844 Z M 74.445312 15.214844 " fill-opacity="1" fill-rule="nonzero"/><path fill="#1e3a8a" d="M 43.316406 11.9375 C 44.808594 11.136719 46.40625 10.507812 48.082031 10.070312 L 46.828125 6.792969 C 46.648438 6.320312 46.117188 6.082031 45.640625 6.261719 L 42.578125 7.433594 C 42.351562 7.519531 42.167969 7.691406 42.070312 7.914062 C 41.96875 8.136719 41.960938 8.390625 42.050781 8.617188 Z M 43.316406 11.9375 " fill-opacity="1" fill-rule="nonzero"/><g clip-path="url(#50174dfdfe)"><path fill="#1e3a8a" d="M 54.804688 6.132812 L 57.136719 6.707031 L 56.433594 9.546875 C 58.082031 9.761719 59.667969 10.15625 61.179688 10.714844 L 61.878906 7.878906 L 64.210938 8.453125 C 64.285156 8.46875 64.359375 8.480469 64.429688 8.480469 C 64.84375 8.480469 65.21875 8.199219 65.324219 7.78125 L 66.261719 3.976562 C 66.320312 3.738281 66.28125 3.488281 66.15625 3.28125 C 66.03125 3.070312 65.824219 2.921875 65.589844 2.863281 L 56.183594 0.542969 C 55.691406 0.421875 55.191406 0.722656 55.070312 1.214844 L 54.132812 5.019531 C 54.074219 5.257812 54.113281 5.507812 54.238281 5.714844 C 54.363281 5.925781 54.566406 6.074219 54.804688 6.132812 Z M 54.804688 6.132812 " fill-opacity="1" fill-rule="nonzero"/></g><path fill="#1e3a8a" d="M 19.910156 7.648438 L 33.164062 7.648438 L 33.164062 11.9375 L 19.910156 11.9375 Z M 19.910156 7.648438 " fill-opacity="1" fill-rule="nonzero"/><path fill="#1e3a8a" d="M 13.296875 7.648438 L 16.832031 7.648438 L 16.832031 11.9375 L 13.296875 11.9375 Z M 13.296875 7.648438 " fill-opacity="1" fill-rule="nonzero"/><path fill="#1e3a8a" d="M 58.519531 32.070312 C 58.519531 31.808594 58.5 31.546875 58.460938 31.292969 L 64.691406 25.03125 L 61.117188 21.472656 L 55.386719 27.230469 C 54.722656 26.933594 53.988281 26.765625 53.214844 26.765625 C 52.5625 26.765625 51.933594 26.886719 51.355469 27.101562 L 48.640625 24.277344 L 45.035156 27.804688 L 48.039062 30.90625 C 47.953125 31.28125 47.910156 31.671875 47.910156 32.070312 C 47.910156 35 50.285156 37.375 53.214844 37.375 C 56.144531 37.375 58.519531 35 58.519531 32.070312 Z M 52.019531 32.070312 C 52.019531 31.414062 52.554688 30.878906 53.214844 30.878906 C 53.875 30.878906 54.40625 31.414062 54.40625 32.070312 C 54.40625 32.730469 53.875 33.265625 53.214844 33.265625 C 52.554688 33.265625 52.019531 32.730469 52.019531 32.070312 Z M 52.019531 32.070312 " fill-opacity="1" fill-rule="nonzero"/><path fill="#1e3a8a" d="M 56.386719 11.488281 C 52.664062 11.019531 49.054688 11.613281 45.859375 13.035156 L 48 17.640625 C 50.359375 16.609375 53.015625 16.179688 55.753906 16.523438 C 63.859375 17.542969 69.601562 24.9375 68.582031 33.039062 C 67.5625 41.140625 60.167969 46.882812 52.066406 45.867188 C 51.644531 45.8125 51.230469 45.742188 50.824219 45.65625 L 50.1875 50.707031 C 50.597656 50.785156 51.015625 50.851562 51.433594 50.902344 C 62.320312 52.269531 72.25 44.558594 73.621094 33.671875 C 74.988281 22.789062 67.273438 12.855469 56.386719 11.488281 Z M 56.386719 11.488281 " fill-opacity="1" fill-rule="nonzero"/></svg>