<svg xmlns="http://www.w3.org/2000/svg" xmlns:xlink="http://www.w3.org/1999/xlink" width="100" zoomAndPan="magnify" viewBox="0 0 75 74.999997" height="100" preserveAspectRatio="xMidYMid meet" version="1.0"><path fill="#1e3a8a" d="M 73.445312 1.644531 C 71.859375 0.0585938 69.273438 0.0546875 67.683594 1.644531 L 32.222656 37.105469 L 29.503906 34.390625 C 25.988281 30.871094 20.445312 30.335938 16.332031 33.113281 C 15.738281 33.511719 15.359375 34.152344 15.289062 34.878906 C 15.246094 35.332031 15.335938 35.777344 15.523438 36.179688 C 13.984375 37.898438 8.394531 43.6875 2.335938 44.421875 C 1.40625 44.535156 0.632812 45.164062 0.324219 46.0625 C 0.00390625 46.992188 0.234375 48 0.921875 48.691406 L 26.402344 74.167969 C 26.882812 74.652344 27.523438 74.910156 28.183594 74.910156 C 28.464844 74.910156 28.75 74.863281 29.027344 74.765625 C 29.925781 74.457031 30.554688 73.6875 30.667969 72.753906 C 31.402344 66.691406 37.199219 61.097656 38.914062 59.5625 C 39.242188 59.714844 39.597656 59.8125 39.96875 59.8125 C 40.046875 59.8125 40.128906 59.808594 40.210938 59.800781 C 40.933594 59.734375 41.578125 59.355469 41.976562 58.761719 C 44.753906 54.644531 44.21875 49.105469 40.703125 45.585938 L 37.984375 42.871094 L 73.445312 7.410156 C 75.035156 5.820312 75.035156 3.234375 73.445312 1.644531 Z M 2.207031 47.40625 C 1.914062 47.113281 2.003906 46.757812 2.039062 46.65625 C 2.082031 46.539062 2.210938 46.269531 2.554688 46.226562 C 9.066406 45.4375 14.800781 39.695312 16.703125 37.59375 L 19.785156 40.675781 C 17.824219 42.882812 10.59375 50.316406 3.542969 48.742188 Z M 28.863281 72.535156 C 28.824219 72.878906 28.550781 73.011719 28.433594 73.050781 C 28.386719 73.066406 28.285156 73.089844 28.160156 73.089844 C 25.917969 68.503906 29.355469 64.9375 29.503906 64.785156 C 29.855469 64.429688 29.855469 63.855469 29.5 63.503906 C 29.144531 63.152344 28.574219 63.148438 28.21875 63.503906 C 28.183594 63.542969 25.207031 66.585938 25.636719 70.832031 L 22.890625 68.089844 C 20.046875 63.15625 28.300781 54.792969 28.382812 54.710938 C 28.738281 54.355469 28.738281 53.78125 28.382812 53.425781 C 28.03125 53.070312 27.457031 53.070312 27.101562 53.425781 C 26.78125 53.746094 20.5625 60.054688 20.503906 65.703125 L 9.917969 55.113281 C 14.667969 54.882812 18.136719 51.519531 18.304688 51.351562 C 18.660156 50.996094 18.660156 50.421875 18.304688 50.066406 C 17.953125 49.710938 17.378906 49.710938 17.023438 50.066406 C 16.984375 50.105469 12.953125 54.042969 8.015625 53.214844 L 5.59375 50.792969 C 12.679688 50.773438 19.066406 44.242188 21.074219 41.964844 L 37.496094 58.386719 C 35.398438 60.289062 29.65625 66.027344 28.863281 72.535156 Z M 39.417969 46.871094 C 42.320312 49.773438 42.765625 54.347656 40.472656 57.746094 C 40.34375 57.9375 40.144531 57.984375 40.039062 57.996094 C 39.828125 58.019531 39.613281 57.9375 39.46875 57.792969 L 17.300781 35.621094 C 17.152344 35.476562 17.074219 35.261719 17.097656 35.050781 C 17.109375 34.945312 17.152344 34.75 17.34375 34.617188 C 18.800781 33.636719 20.46875 33.15625 22.132812 33.15625 C 24.351562 33.15625 26.558594 34.011719 28.21875 35.671875 Z M 72.160156 6.125 L 36.699219 41.585938 L 33.503906 38.390625 L 68.964844 2.929688 C 69.84375 2.050781 71.28125 2.050781 72.160156 2.929688 C 73.042969 3.8125 73.042969 5.246094 72.160156 6.125 Z M 72.160156 6.125 " fill-opacity="1" fill-rule="nonzero"/></svg>