<svg xmlns="http://www.w3.org/2000/svg" xmlns:xlink="http://www.w3.org/1999/xlink" width="100" zoomAndPan="magnify" viewBox="0 0 75 74.999997" height="100" preserveAspectRatio="xMidYMid meet" version="1.0"><defs><clipPath id="c7918b486b"><path d="M 0 0.421875 L 75 0.421875 L 75 66 L 0 66 Z M 0 0.421875 " clip-rule="nonzero"/></clipPath><clipPath id="aa83158d8d"><path d="M 34 53 L 56 53 L 56 74.671875 L 34 74.671875 Z M 34 53 " clip-rule="nonzero"/></clipPath><clipPath id="efc6daecc5"><path d="M 3 69 L 31 69 L 31 74.671875 L 3 74.671875 Z M 3 69 " clip-rule="nonzero"/></clipPath></defs><g clip-path="url(#c7918b486b)"><path fill="#1e3a8a" d="M 73.6875 0.816406 C 73.261719 0.566406 72.804688 0.460938 72.382812 0.496094 L 58.242188 0.496094 C 57.464844 0.425781 56.6875 0.78125 56.230469 1.496094 L 34.71875 36.292969 L 39.761719 36.292969 L 59.898438 3.808594 C 59.96875 3.667969 60.039062 3.488281 60.109375 3.347656 L 69.597656 3.347656 L 47.097656 39.714844 C 45.015625 38.253906 42.441406 37.363281 39.585938 37.363281 L 18.074219 37.363281 C 10.136719 37.363281 3.050781 43.953125 1.816406 51.929688 L 0.265625 62.1875 C 0.015625 63.757812 1.214844 65.074219 2.804688 65.074219 L 33.34375 65.074219 C 33.308594 64.753906 33.308594 64.398438 33.308594 64.039062 C 33.308594 57.628906 38.421875 52.429688 44.769531 52.429688 C 47.34375 52.429688 49.742188 53.285156 51.644531 54.746094 L 52.140625 51.929688 C 52.773438 48.546875 51.824219 45.414062 50.164062 42.917969 L 74.355469 3.808594 C 74.992188 2.777344 74.675781 1.457031 73.6875 0.816406 Z M 73.6875 0.816406 " fill-opacity="1" fill-rule="evenodd"/></g><path fill="#1e3a8a" d="M 2.804688 66.855469 C 2.804688 67.496094 3.296875 68.03125 3.933594 68.03125 L 29.78125 68.03125 C 30.417969 68.03125 30.945312 67.496094 30.945312 66.855469 L 30.945312 66.140625 L 2.804688 66.140625 Z M 2.804688 66.855469 " fill-opacity="1" fill-rule="evenodd"/><g clip-path="url(#aa83158d8d)"><path fill="#1e3a8a" d="M 44.769531 53.496094 C 39.019531 53.496094 34.367188 58.234375 34.367188 64.039062 C 34.367188 69.847656 39.019531 74.585938 44.769531 74.585938 C 50.550781 74.585938 55.207031 69.847656 55.207031 64.039062 C 55.207031 58.234375 50.550781 53.496094 44.769531 53.496094 Z M 44.769531 70.0625 C 41.488281 70.0625 38.808594 67.351562 38.808594 64.042969 C 38.808594 60.726562 41.488281 58.023438 44.769531 58.023438 C 48.085938 58.023438 50.730469 60.730469 50.730469 64.042969 C 50.730469 67.351562 48.085938 70.0625 44.769531 70.0625 Z M 44.769531 70.0625 " fill-opacity="1" fill-rule="evenodd"/></g><g clip-path="url(#efc6daecc5)"><path fill="#1e3a8a" d="M 28.652344 69.097656 C 24.703125 69.097656 20.789062 69.097656 16.875 69.097656 C 12.925781 69.097656 9.007812 69.097656 5.058594 69.097656 C 4.847656 69.917969 4.636719 70.773438 4.390625 71.664062 C 4.144531 72.589844 3.859375 73.550781 3.613281 74.585938 C 8.023438 74.585938 12.429688 74.585938 16.875 74.585938 C 21.28125 74.585938 25.691406 74.585938 30.132812 74.585938 C 29.851562 73.550781 29.605469 72.589844 29.359375 71.664062 C 29.109375 70.773438 28.863281 69.917969 28.652344 69.097656 Z M 28.652344 69.097656 " fill-opacity="1" fill-rule="evenodd"/></g><path fill="#1e3a8a" d="M 44.769531 60.050781 C 42.582031 60.050781 40.820312 61.832031 40.820312 64.039062 C 40.820312 66.25 42.582031 68.03125 44.769531 68.03125 C 46.957031 68.03125 48.71875 66.25 48.71875 64.039062 C 48.71875 61.832031 46.957031 60.050781 44.769531 60.050781 Z M 44.769531 60.050781 " fill-opacity="1" fill-rule="evenodd"/><path fill="#1e3a8a" d="M 28.300781 34.191406 L 20.648438 34.191406 C 19.519531 34.191406 18.566406 35.152344 18.566406 36.292969 L 30.382812 36.292969 C 30.378906 35.152344 29.429688 34.191406 28.300781 34.191406 Z M 28.300781 34.191406 " fill-opacity="1" fill-rule="evenodd"/></svg>