<svg xmlns="http://www.w3.org/2000/svg" xmlns:xlink="http://www.w3.org/1999/xlink" width="100" zoomAndPan="magnify" viewBox="0 0 75 74.999997" height="100" preserveAspectRatio="xMidYMid meet" version="1.0"><path fill="#1e3a8a" d="M 13.417969 15.820312 C 17.417969 11.257812 23.171875 8.605469 29.300781 8.605469 C 35.433594 8.605469 41.179688 11.257812 45.183594 15.820312 C 45.128906 7.101562 38.027344 0.0273438 29.300781 0.0273438 C 20.574219 0.0273438 13.46875 7.101562 13.417969 15.820312 Z M 44.785156 74.96875 C 43.550781 72.484375 42.878906 69.433594 42.878906 66.199219 C 42.878906 65.949219 42.886719 65.695312 42.90625 65.363281 C 42.917969 65.199219 42.875 65.078125 42.757812 64.960938 C 42.644531 64.839844 42.53125 64.789062 42.363281 64.789062 L 16.234375 64.789062 C 16.074219 64.789062 15.957031 64.839844 15.839844 64.960938 C 15.726562 65.078125 15.6875 65.199219 15.695312 65.363281 C 15.714844 65.695312 15.71875 65.949219 15.71875 66.199219 C 15.71875 69.433594 15.050781 72.484375 13.820312 74.96875 Z M 73.078125 68.035156 L 54.023438 68.035156 L 52.265625 74.96875 L 55.863281 74.96875 L 55.863281 72.191406 C 55.863281 71.652344 56.304688 71.210938 56.84375 71.210938 C 57.386719 71.210938 57.824219 71.652344 57.824219 72.191406 L 57.824219 74.96875 L 62.5625 74.96875 L 62.5625 70.933594 C 62.5625 70.394531 63.003906 69.953125 63.542969 69.953125 C 64.085938 69.953125 64.527344 70.394531 64.527344 70.933594 L 64.527344 74.96875 L 69.273438 74.96875 L 69.273438 72.191406 C 69.273438 71.652344 69.714844 71.210938 70.253906 71.210938 C 70.796875 71.210938 71.234375 71.652344 71.234375 72.191406 L 71.234375 74.96875 L 74.824219 74.96875 Z M 61.691406 59.082031 L 59.003906 61.9375 C 58 63.003906 56.699219 63.566406 55.230469 63.566406 L 54.480469 63.566406 C 53.792969 63.566406 53.230469 64.128906 53.230469 64.816406 L 53.230469 66.070312 L 73.875 66.070312 L 73.875 64.816406 C 73.875 64.128906 73.3125 63.566406 72.617188 63.566406 L 71.867188 63.566406 C 70.40625 63.566406 69.101562 63.003906 68.09375 61.9375 L 65.40625 59.082031 Z M 62.253906 26.632812 L 62.253906 57.121094 L 64.851562 57.121094 L 64.851562 26.632812 C 64.851562 25.917969 64.265625 25.335938 63.550781 25.335938 C 62.832031 25.332031 62.253906 25.917969 62.253906 26.632812 Z M 43.3125 52.054688 L 50.71875 54.589844 C 53.3125 55.476562 55.09375 57.429688 55.75 60.085938 L 56.097656 61.492188 C 55.824219 61.5625 55.535156 61.601562 55.226562 61.601562 L 54.480469 61.601562 C 52.710938 61.601562 51.265625 63.046875 51.265625 64.816406 L 51.265625 67.050781 C 51.265625 67.511719 51.578125 67.894531 52.007812 68.003906 L 50.242188 74.96875 L 47.34375 74.96875 L 49.863281 67.601562 C 50.035156 67.089844 49.765625 66.53125 49.25 66.355469 C 48.742188 66.179688 48.179688 66.453125 48.003906 66.96875 L 46 72.835938 C 45.253906 70.863281 44.84375 68.5625 44.84375 66.195312 C 44.84375 65.988281 44.851562 65.765625 44.871094 65.476562 C 44.910156 64.769531 44.675781 64.125 44.1875 63.609375 C 43.933594 63.339844 43.632812 63.136719 43.3125 63.003906 Z M 37.640625 50.117188 L 37.640625 62.824219 L 41.351562 62.824219 L 41.351562 51.382812 Z M 15.292969 63.003906 C 14.96875 63.136719 14.671875 63.339844 14.414062 63.609375 C 13.929688 64.125 13.699219 64.769531 13.738281 65.476562 C 13.75 65.765625 13.765625 65.988281 13.765625 66.195312 C 13.765625 68.5625 13.351562 70.863281 12.609375 72.835938 L 10.601562 66.96875 C 10.421875 66.457031 9.867188 66.179688 9.351562 66.355469 C 8.839844 66.53125 8.566406 67.089844 8.738281 67.601562 L 11.257812 74.96875 L 3.765625 74.96875 C 2.625 74.96875 1.640625 74.492188 0.941406 73.59375 C 0.230469 72.691406 0.00390625 71.628906 0.28125 70.519531 L 2.851562 60.089844 C 3.507812 57.429688 5.296875 55.476562 7.890625 54.589844 L 15.292969 52.058594 Z M 20.960938 62.824219 L 20.960938 50.117188 L 17.25 51.382812 L 17.25 62.824219 Z M 35.679688 52.023438 C 34.015625 53.125 31.753906 53.765625 29.300781 53.765625 C 26.847656 53.765625 24.582031 53.128906 22.925781 52.023438 L 22.925781 62.824219 L 35.679688 62.824219 Z M 35.679688 42.222656 C 33.722656 43.539062 31.511719 44.199219 29.300781 44.199219 C 27.085938 44.199219 24.875 43.542969 22.925781 42.222656 L 22.925781 49.433594 C 24.132812 50.878906 26.59375 51.800781 29.300781 51.800781 C 32.007812 51.800781 34.464844 50.878906 35.679688 49.433594 Z M 16.910156 21.21875 C 17.089844 20.675781 17.3125 20.144531 17.554688 19.625 C 16.871094 20.03125 16.214844 20.480469 15.585938 20.964844 C 16.042969 20.988281 16.484375 21.074219 16.910156 21.21875 Z M 41.695312 21.21875 C 42.117188 21.074219 42.566406 20.988281 43.015625 20.964844 C 42.386719 20.480469 41.730469 20.03125 41.046875 19.625 C 41.289062 20.144531 41.507812 20.675781 41.695312 21.21875 Z M 42.597656 26.574219 L 42.597656 28.933594 C 42.597656 30.101562 42.476562 31.25 42.238281 32.363281 C 42.285156 32.363281 42.328125 32.359375 42.382812 32.355469 C 45.097656 31.984375 47.136719 29.644531 47.136719 26.90625 L 47.136719 26.355469 C 47.136719 24.460938 45.597656 22.917969 43.699219 22.917969 L 43.273438 22.917969 C 42.914062 22.917969 42.558594 22.984375 42.226562 23.105469 C 42.472656 24.242188 42.597656 25.40625 42.597656 26.574219 Z M 16 26.574219 C 16 25.40625 16.128906 24.242188 16.375 23.109375 C 16.042969 22.984375 15.6875 22.917969 15.328125 22.917969 L 14.90625 22.917969 C 13.007812 22.917969 11.464844 24.460938 11.464844 26.359375 L 11.464844 26.910156 C 11.464844 29.644531 13.511719 31.988281 16.21875 32.355469 C 16.273438 32.363281 16.316406 32.363281 16.363281 32.367188 C 16.128906 31.25 16.003906 30.101562 16.003906 28.933594 L 16.003906 26.574219 Z M 27.367188 16.90625 L 31.230469 16.90625 C 33.515625 16.90625 35.761719 17.320312 37.871094 18.105469 C 39.65625 20.527344 40.640625 23.523438 40.640625 26.574219 L 40.640625 28.933594 C 40.640625 33.503906 38.476562 37.792969 34.859375 40.402344 C 31.484375 42.839844 27.121094 42.839844 23.738281 40.402344 C 20.125 37.792969 17.964844 33.503906 17.964844 28.933594 L 17.964844 26.574219 C 17.964844 23.523438 18.945312 20.527344 20.726562 18.105469 C 22.839844 17.320312 25.089844 16.90625 27.367188 16.90625 Z M 29.300781 10.570312 C 35.667969 10.570312 41.582031 13.722656 45.183594 19.023438 L 45.183594 20.214844 C 41.335938 16.839844 36.363281 14.941406 31.230469 14.941406 L 27.367188 14.941406 C 22.238281 14.941406 17.269531 16.839844 13.417969 20.214844 L 13.417969 19.023438 C 17.019531 13.726562 22.929688 10.570312 29.300781 10.570312 Z M 29.300781 10.570312 " fill-opacity="1" fill-rule="evenodd"/></svg>