<svg xmlns="http://www.w3.org/2000/svg" xmlns:xlink="http://www.w3.org/1999/xlink" width="500" zoomAndPan="magnify" viewBox="0 0 375 449.999984" height="600" preserveAspectRatio="xMidYMid meet" version="1.0"><path fill="#1e3a8a" d="M 121.335938 380.050781 C 116.527344 382.15625 109.667969 382.554688 104.488281 381.769531 C 99.082031 380.953125 94.605469 378.332031 91.167969 374.128906 C 87.917969 370.160156 81.628906 376.570312 85.609375 379.6875 C 91.039062 383.945312 97.425781 386.507812 104.335938 386.933594 C 111.367188 387.363281 116.523438 385.015625 121.617188 380.414062 C 121.824219 380.222656 121.558594 379.949219 121.335938 380.050781 Z M 339.613281 369.382812 C 345.507812 369.367188 356.480469 366.179688 356.617188 358.835938 C 356.660156 356.632812 354.304688 354.679688 352.128906 355.417969 C 349.722656 356.226562 348.578125 358.246094 346.535156 359.621094 C 344.445312 361.03125 342.082031 361.929688 339.578125 362.226562 C 334.355469 362.851562 328.824219 362.066406 325.0625 358.171875 C 324.238281 357.316406 322.9375 358.398438 323.460938 359.402344 C 326.621094 365.453125 332.746094 369.40625 339.613281 369.382812 Z M 305.59375 418.171875 C 301.582031 415.59375 296.492188 414.972656 292.28125 412.539062 C 287.953125 410.03125 284.160156 406.683594 280.929688 402.878906 C 273.730469 394.398438 268.398438 383.355469 264.976562 372.851562 C 264.730469 372.097656 263.699219 372.417969 263.8125 373.167969 C 265.789062 386.007812 268.144531 398.105469 276.226562 408.648438 C 279.679688 413.152344 283.773438 417.054688 288.542969 420.148438 C 293.0625 423.085938 299.234375 426.164062 304.722656 424.847656 C 307.910156 424.085938 308.132812 419.800781 305.59375 418.171875 Z M 192.652344 348.648438 C 188.097656 352.019531 184.496094 355.480469 181.417969 360.273438 C 178.066406 365.492188 175.367188 371.109375 172.683594 376.691406 C 170.089844 382.082031 167.492188 387.503906 164.191406 392.503906 C 162.5 395.074219 160.625 397.511719 158.472656 399.714844 C 156.6875 401.539062 153.96875 402.992188 153.25 405.527344 C 153.019531 406.335938 153.65625 407.066406 154.457031 407.105469 C 158.890625 407.324219 163.339844 400.726562 165.695312 397.554688 C 169.351562 392.628906 172.160156 387.148438 174.8125 381.644531 C 180.039062 370.816406 184.9375 358.566406 193.71875 350.023438 C 194.414062 349.351562 193.472656 348.035156 192.652344 348.648438 Z M 195.195312 312.519531 C 195.855469 312.144531 195.589844 311.019531 194.796875 311.054688 C 172.902344 312.0625 159.761719 336.890625 151.953125 354.414062 C 142.074219 376.582031 132.5 400.664062 107.757812 409.582031 C 102.027344 411.644531 95.964844 412.972656 89.847656 412.472656 C 83.832031 411.980469 79.449219 408.148438 73.75 406.976562 C 72.109375 406.636719 70.390625 407.714844 70.414062 409.519531 C 70.554688 421.597656 88.542969 422.945312 97.203125 421.871094 C 109.542969 420.339844 121.257812 414.558594 130.476562 406.300781 C 149.933594 388.871094 154.332031 361.835938 166.976562 340.0625 C 173.90625 328.128906 183.28125 319.355469 195.195312 312.519531 Z M 219.082031 327.871094 C 218.699219 327.265625 217.6875 327.644531 217.898438 328.371094 C 224.042969 349.6875 217.863281 370.816406 202.964844 386.867188 C 196.234375 394.121094 188.273438 401.019531 179.894531 406.300781 C 175.558594 409.035156 171.007812 411.246094 166.121094 412.816406 C 161.292969 414.367188 156.136719 414.84375 151.359375 416.328125 C 149.308594 416.96875 148.710938 419.964844 150.738281 421.066406 C 160.863281 426.550781 173.945312 420.660156 182.746094 415.144531 C 192.859375 408.808594 201.511719 400.542969 208.757812 391.105469 C 221.980469 373.890625 231.910156 348.003906 219.082031 327.871094 Z M 239.734375 319.414062 C 238.875 319.121094 237.875 320.074219 238.203125 320.953125 C 239.6875 324.984375 242.203125 328.554688 243.613281 332.664062 C 245.152344 337.144531 246.066406 341.753906 246.632812 346.453125 C 247.9375 357.246094 248.535156 368.222656 248.609375 379.089844 C 248.679688 388.992188 247.761719 399.304688 240.621094 406.839844 C 237.570312 410.0625 233.894531 412.554688 230.042969 414.71875 C 226.191406 416.882812 220.914062 418.382812 217.988281 421.796875 C 216.339844 423.714844 217.367188 426.917969 220.113281 426.925781 C 225.003906 426.945312 230.335938 423.433594 234.40625 420.988281 C 238.863281 418.308594 243.1875 415.128906 246.574219 411.148438 C 253.792969 402.671875 255.613281 391.894531 255.632812 381.0625 C 255.660156 368.832031 254.710938 356.492188 252.882812 344.402344 C 251.625 336.019531 249.046875 322.601562 239.734375 319.414062 Z M 351.960938 408.058594 C 346.945312 406.050781 341.082031 406.316406 335.90625 404.609375 C 330.445312 402.8125 325.292969 399.761719 320.898438 396.074219 C 311.222656 387.953125 305.25 376.875 299.605469 365.796875 C 294.078125 354.957031 289.089844 343.613281 281.59375 333.953125 C 274.675781 325.039062 266.8125 318.164062 256.570312 313.351562 C 256.042969 313.101562 255.585938 313.84375 256.105469 314.152344 C 267.394531 320.851562 273.898438 332.378906 279.8125 343.617188 C 285.851562 355.089844 290.179688 367.363281 296.359375 378.761719 C 302.335938 389.78125 309.867188 399.898438 320.316406 407.03125 C 328.546875 412.644531 343.960938 419.46875 352.980469 411.925781 C 354.457031 410.691406 353.402344 408.644531 351.960938 408.058594 Z M 368.621094 388.945312 C 362.578125 387.066406 356.316406 387.46875 350.152344 386.152344 C 343.9375 384.832031 338.128906 382.277344 333.21875 378.207031 C 324.179688 370.714844 318.566406 360.09375 313.941406 349.519531 C 309.082031 338.40625 305.234375 326.691406 298.566406 316.476562 C 292.894531 307.792969 285.332031 300.269531 276.753906 294.457031 C 268.042969 288.5625 255.582031 282.453125 244.828125 284.625 C 243.226562 284.949219 243.632812 286.984375 244.828125 287.480469 C 249.726562 289.519531 254.921875 290.40625 259.878906 292.304688 C 264.925781 294.238281 269.761719 296.90625 274.226562 299.949219 C 283.300781 306.128906 290.816406 314.492188 296.492188 323.859375 C 308.410156 343.507812 312.398438 368.652344 331.644531 383.230469 C 341.308594 390.558594 356.792969 394.863281 368.621094 391.261719 C 369.769531 390.914062 369.761719 389.300781 368.621094 388.945312 Z M 187.816406 296.171875 C 185.566406 294.664062 183.546875 293.03125 181.804688 290.941406 C 178.28125 286.71875 175.960938 281.226562 174.207031 276.050781 C 173.910156 275.179688 172.75 275.382812 172.660156 276.257812 C 172 282.589844 174.078125 288.144531 177.847656 293.269531 C 180.667969 297.105469 186.191406 303.886719 191.488281 303.433594 C 192.9375 303.3125 194.347656 301.667969 193.324219 300.234375 C 191.90625 298.238281 189.8125 297.515625 187.816406 296.171875 Z M 214.753906 285.617188 C 211.535156 286.988281 208.402344 288.699219 205.644531 290.859375 C 202.9375 292.976562 201.484375 295.605469 199.53125 298.335938 C 199.242188 298.742188 199.847656 299.132812 200.1875 298.839844 C 202.753906 296.617188 206.195312 294.953125 209.09375 293.191406 C 211.6875 291.613281 214.441406 290.316406 217.328125 289.367188 C 223.28125 287.402344 229.511719 286.75 235.734375 287.453125 C 238.855469 287.8125 238.851562 282.882812 235.734375 282.550781 C 228.539062 281.785156 221.417969 282.773438 214.753906 285.617188 Z M 221.410156 266.949219 C 223.609375 269.226562 225.707031 271.613281 227.539062 274.195312 C 228.988281 276.238281 232.925781 284.785156 236.328125 280.199219 C 239.25 276.253906 232.410156 269.183594 229.730469 266.738281 C 226 263.335938 220.539062 259.90625 215.375 259.628906 C 214.671875 259.589844 214.371094 260.503906 214.820312 260.972656 C 216.863281 263.113281 219.339844 264.808594 221.410156 266.949219 Z M 99.269531 119.347656 C 121.183594 148.265625 142.742188 177.539062 163.703125 207.152344 C 169.738281 215.683594 175.796875 224.203125 181.800781 232.761719 C 184.660156 236.835938 187.503906 240.917969 190.335938 245.011719 C 193.109375 249.019531 195.835938 253.324219 199.484375 256.585938 C 197.4375 257.246094 195.503906 258.070312 193.847656 258.875 C 187.292969 262.0625 182.851562 266.625 179.65625 273.03125 C 179.570312 273.207031 179.808594 273.429688 179.949219 273.253906 C 183.605469 268.664062 189.007812 264.480469 194.355469 262.058594 C 197.074219 260.832031 199.976562 259.9375 202.921875 259.46875 C 206.007812 258.972656 209.082031 259.359375 212.097656 258.472656 C 212.992188 258.207031 213.296875 256.816406 212.371094 256.359375 C 208.984375 254.683594 204.695312 255.078125 200.695312 256.214844 C 198.15625 247.890625 192.035156 240.21875 187.425781 232.921875 C 182.65625 225.367188 177.878906 217.8125 172.953125 210.359375 C 162.828125 195.035156 152.523438 179.832031 142.113281 164.703125 C 121.421875 134.636719 98.890625 105.507812 75.824219 77.230469 C 62.679688 61.117188 48.683594 45.675781 34.195312 30.761719 C 33.769531 30.324219 32.949219 30.914062 33.328125 31.4375 C 54.695312 61.210938 77.136719 90.140625 99.269531 119.347656 Z M 3.242188 38.527344 C 6.84375 34.835938 10.511719 31.355469 15.414062 29.460938 C 17.742188 28.5625 20.304688 27.925781 22.789062 27.671875 C 24.808594 27.46875 26.832031 27.820312 28.800781 27.328125 C 29.703125 27.101562 29.917969 25.738281 29.066406 25.300781 C 24.855469 23.109375 18.34375 24.953125 14.28125 26.78125 C 9.265625 29.046875 4.550781 32.710938 2.367188 37.855469 C 2.140625 38.394531 2.761719 39.019531 3.242188 38.527344 Z M 92.042969 186.269531 C 80.285156 172.386719 68.964844 158.109375 58.546875 143.1875 C 47.820312 127.824219 37.386719 112.324219 27.695312 96.285156 C 22.960938 88.457031 18.503906 80.484375 13.914062 72.570312 C 9.09375 64.265625 4.15625 55.972656 0.195312 47.21875 C -0.0273438 46.734375 0.605469 46.351562 0.914062 46.796875 C 6.878906 55.46875 12.015625 64.679688 17.777344 73.488281 C 23.542969 82.304688 29.613281 90.945312 35.730469 99.523438 C 57.039062 129.417969 79.816406 158.324219 103.808594 186.121094 C 109.785156 193.046875 115.695312 200.058594 121.777344 206.890625 C 125.113281 210.644531 128.667969 214.25 131.910156 218.085938 C 134.746094 221.4375 137.199219 225.007812 140.203125 228.222656 C 152.835938 241.746094 165.691406 255.128906 179.214844 267.769531 C 180.355469 268.835938 178.671875 270.472656 177.511719 269.46875 C 169.542969 262.585938 161.53125 255.722656 153.722656 248.660156 C 145.941406 241.621094 138.734375 233.773438 130.625 227.132812 C 123.535156 221.324219 117.652344 214.257812 111.167969 207.804688 C 104.382812 201.042969 98.234375 193.578125 92.042969 186.269531 " fill-opacity="1" fill-rule="nonzero"/><path fill="#1e3a8a" d="M 373.058594 232.847656 C 369.933594 232.546875 366.847656 232.382812 363.707031 232.292969 C 364.292969 232.628906 364.878906 232.964844 365.460938 233.304688 C 364.679688 231.714844 363.425781 230.574219 361.535156 230.832031 C 359.800781 231.066406 358.449219 232.550781 358.449219 234.328125 C 358.449219 235.894531 359.546875 237.34375 361.058594 237.761719 C 363.082031 238.316406 364.621094 237.0625 365.460938 235.351562 C 364.878906 235.6875 364.292969 236.027344 363.707031 236.363281 C 366.847656 236.273438 369.933594 236.109375 373.058594 235.804688 C 374.957031 235.625 374.960938 233.03125 373.058594 232.847656 Z M 354.472656 256.527344 C 355.421875 250.722656 356.085938 245.078125 355.472656 239.140625 C 354.9375 233.925781 347.277344 236.058594 349.527344 240.75 C 351.859375 245.617188 353.550781 250.996094 353.75 256.429688 C 353.761719 256.824219 354.40625 256.957031 354.472656 256.527344 Z M 330.4375 235.207031 C 331.90625 235.394531 333.085938 236.761719 334.515625 237.152344 C 335.527344 237.425781 336.6875 237.398438 337.722656 237.503906 C 340.554688 237.792969 343.378906 237.980469 346.222656 238.117188 C 351.101562 238.355469 351.109375 230.296875 346.222656 230.535156 C 343.375 230.675781 340.558594 230.859375 337.722656 231.152344 C 336.707031 231.253906 335.511719 231.253906 334.515625 231.503906 C 333.0625 231.875 331.921875 233.253906 330.4375 233.449219 C 329.308594 233.597656 329.304688 235.058594 330.4375 235.207031 Z M 351.132812 205.808594 C 350.957031 203.550781 354.355469 203.265625 354.949219 205.292969 C 356.109375 209.25 356.460938 213.167969 356.945312 217.242188 C 357.425781 221.195312 358.398438 225.085938 357.765625 229.042969 C 357.058594 233.476562 349.871094 232.335938 350.046875 227.996094 C 350.195312 224.207031 351.695312 220.695312 351.820312 216.871094 C 351.941406 213.199219 351.414062 209.464844 351.132812 205.808594 " fill-opacity="1" fill-rule="nonzero"/><path fill="#1e3a8a" d="M 93.742188 284.539062 C 91.71875 283.792969 90.191406 283.144531 88.078125 282.613281 C 85.777344 282.035156 83.570312 281.105469 81.273438 280.484375 C 79.9375 280.125 78.734375 280.75 77.980469 281.824219 C 77.65625 282.28125 77.558594 282.738281 77.582031 283.292969 C 77.628906 284.566406 78.449219 285.769531 79.71875 286.101562 C 82.199219 286.757812 84.484375 286.78125 87.007812 286.75 C 88.027344 286.738281 89.046875 286.789062 90.054688 286.644531 C 91.425781 286.4375 92.460938 285.777344 93.742188 285.253906 C 94.082031 285.113281 94.105469 284.671875 93.742188 284.539062 Z M 71.742188 305.480469 C 72.226562 304.585938 72.996094 304.101562 73.472656 303.222656 C 74.167969 301.9375 74.101562 300.109375 74.199219 298.6875 C 74.4375 295.148438 74.613281 291.539062 74.410156 288 C 74.203125 284.316406 68.886719 284.304688 68.675781 288 C 68.476562 291.539062 68.644531 295.148438 68.886719 298.6875 C 68.984375 300.109375 68.921875 301.9375 69.617188 303.222656 C 70.089844 304.101562 70.859375 304.585938 71.34375 305.480469 C 71.421875 305.632812 71.660156 305.632812 71.742188 305.480469 Z M 44.335938 286.179688 C 50.523438 287.738281 57.316406 287.144531 63.652344 287.246094 C 66.742188 287.300781 66.75 282.386719 63.652344 282.4375 C 57.316406 282.542969 50.515625 281.949219 44.335938 283.503906 C 43.015625 283.835938 43.015625 285.847656 44.335938 286.179688 Z M 68.769531 256.574219 C 68.730469 255.730469 69.8125 255.59375 70.234375 256.175781 C 74.304688 261.875 75.652344 270.136719 76.414062 276.949219 C 76.867188 280.929688 69.886719 281.054688 70.125 276.949219 C 70.351562 273.164062 70.558594 269.4375 70.027344 265.6875 C 69.59375 262.640625 68.910156 259.660156 68.769531 256.574219 " fill-opacity="1" fill-rule="nonzero"/><path fill="#1e3a8a" d="M 219.933594 105.863281 C 215.710938 105.769531 211.527344 105.378906 207.304688 105.214844 C 203.671875 105.078125 203.667969 111 207.304688 110.859375 C 211.527344 110.699219 215.710938 110.304688 219.933594 110.210938 C 222.730469 110.148438 222.734375 105.929688 219.933594 105.863281 Z M 207.136719 126.949219 C 206.902344 121.691406 206.199219 116.453125 205.644531 111.214844 C 205.394531 108.832031 202.015625 109.25 202.375 111.660156 C 203.152344 116.863281 203.785156 122.105469 204.867188 127.253906 C 205.132812 128.527344 207.199219 128.25 207.136719 126.949219 Z M 185.203125 108.492188 C 187.46875 108.5625 189.738281 108.625 192.003906 108.695312 C 194.042969 108.753906 195.875 109.136719 197.464844 107.671875 C 198.121094 107.058594 198.121094 105.859375 197.464844 105.25 C 195.875 103.78125 194.042969 104.167969 192.003906 104.226562 C 189.738281 104.292969 187.46875 104.359375 185.203125 104.425781 C 182.585938 104.5 182.582031 108.417969 185.203125 108.492188 Z M 198.992188 84.347656 C 198.941406 83.777344 199.71875 83.796875 199.902344 84.226562 C 202.296875 89.917969 205.308594 94.867188 206.558594 101.050781 C 207.273438 104.59375 202.175781 106.054688 201.117188 102.550781 C 199.273438 96.429688 199.574219 90.578125 198.992188 84.347656 " fill-opacity="1" fill-rule="nonzero"/></svg>